/* XPM */
static char *cos_xpm[]={
/* ChaosToolsFrm_functionBifBitmap */
"160 50 16 1",
"      c None",
"0     c #999999",
"1     c #F5F5F5",
"2     c #D7D7D7",
"3     c #B4B4B4",
"4     c #8B8B8B",
"5     c #C0C0C0",
"6     c #686868",
"7     c #E1E1E1",
"8     c #393939",
"9     c #ECECEC",
"a     c #CCCCCC",
"b     c #7A7A7A",
"c     c #A7A7A7",
"d     c #535353",
"e     c #000000",
"                                                                                                                                                                ",
"                                                                                                                                                                ",
"                                                                                                                                                                ",
"                                                                                                                                                                ",
"                                                                                                                                                                ",
"                                                                                                                                                                ",
"                                                                                                                                                                ",
"                                                                                                                                                                ",
"                                                                                                                                                                ",
"                                                                                                                                                                ",
"                                                                                                                                                                ",
"                                                                                                                                                                ",
"                                                                                                                                                                ",
"                                                                                                                                                                ",
"                                                                                                                                                                ",
"                                                                                                               01           23                                  ",
"                                                                                                              42             35                                 ",
"                                                                                                             50               67                                ",
"                                                                                                             89               ab                                ",
"                                                                                                            5b                 89                               ",
"                                                                                   7b443   104401  14000c   b3                 43                               ",
"                                    53033c6c                          ccba36b     289  33 1d2  2d1 b2  a0   82     53033c6c    3b                               ",
"                                   c1 2e3 dc      5eeeeeeeeeeed      9c1e0 b4    183   66 36    63 e2   0  9e9    c1 2e3 dc    ad                               ",
"                                  95  5e9                            a72e9       5e9   c3 d4    4d 4eb371  2e    95  5e9       2e                               ",
"                                      4d                               cd        0e       e0    0e 1cdee5  2e        4d        2e                               ",
"                                      80                               60        ce       d4    4d 3  908  2e        80        2e                               ",
"                                     9ea  51      5eeeeeeeeeeed       1e5        2e2    5 cd    6c 8    e1 9e9      9ea  51    ad                               ",
"                                  cd ce7 9c                           ae1         061  9c 1da  ad1 e5  76   82   cd ce7 9c     3b                               ",
"                                  36055403                            3b           5b403   104401  b30049   b3   36055403      43                               ",
"                                                                                                            5b                 89                               ",
"                                                                                                            181               ab                                ",
"                                                                                                             50               67                                ",
"                                                                                                              42             35                                 ",
"                                                                                                              101           23                                  ",
"                                                                                                                                                                ",
"                                                                                                                                                                ",
"                                                                                                                                                                ",
"                                                                                                                                                                ",
"                                                                                                                                                                ",
"                                                                                                                                                                ",
"                                                                                                                                                                ",
"                                                                                                                                                                ",
"                                                                                                                                                                ",
"                                                                                                                                                                ",
"                                                                                                                                                                ",
"                                                                                                                                                                ",
"                                                                                                                                                                ",
"                                                                                                                                                                ",
"                                                                                                                                                                ",
"                                                                                                                                                                "};

