/* XPM */
static char *sin_xpm[]={
/* ChaosToolsFrm_functionBifBitmap */
"160 50 16 1",
"      c None",
"0     c #999999",
"1     c #F5F5F5",
"2     c #D7D7D7",
"3     c #B4B4B4",
"4     c #CCCCCC",
"5     c #393939",
"6     c #8B8B8B",
"7     c #C0C0C0",
"8     c #000000",
"9     c #686868",
"a     c #E1E1E1",
"b     c #ECECEC",
"c     c #7A7A7A",
"d     c #535353",
"e     c #A7A7A7",
"                                                                                                                                                                ",
"                                                                                                                                                                ",
"                                                                                                                                                                ",
"                                                                                                                                                                ",
"                                                                                                                                                                ",
"                                                                                                                                                                ",
"                                                                                                                                                                ",
"                                                                                                                                                                ",
"                                                                                                                                                                ",
"                                                                                                                                                                ",
"                                                                                                                                                                ",
"                                                                                                                                                                ",
"                                                                                                                                                                ",
"                                                                                                                                                                ",
"                                                                                                                                                                ",
"                                                                                                               01           23                                  ",
"                                                                                           452                62             37                                 ",
"                                                                                           784               70               9a                                ",
"                                                                                                             5b               4c                                ",
"                                                                                                            7c                 5b                               ",
"                                                                                    b600032d53  6dda06cb    c3                 63                               ",
"                                      73033e9e                          eec439c     db  33 183   05e  69    52     73033e9e    3c                               ",
"                                     e1 283 de      788888888888d      be180 c6    b8a  b3  83   38a  38   b8b    e1 283 de    4d                               ",
"                                    b7  78b                            4a28b        98c3b1  83   38   38   28    b7  78b       28                               ",
"                                        6d                               ed         105852  83   38   38   28        6d        28                               ",
"                                        50                               90        17  bcd  83   38   38   28        50        28                               ",
"                                       b84  71      788888888888d       187        b9   b8  83   38   38   b8b      b84  71    4d                               ",
"                                    ed e8a be                           481        b82  26  83   38   38    52   ed e8a be     3c                               ",
"                                    39077603                            3c         1c3000129d5e 0dd920dd92  c3   39077603      63                               ",
"                                                                                                            7c                 5b                               ",
"                                                                                                            151               4c                                ",
"                                                                                                             70               9a                                ",
"                                                                                                              62             37                                 ",
"                                                                                                              101           23                                  ",
"                                                                                                                                                                ",
"                                                                                                                                                                ",
"                                                                                                                                                                ",
"                                                                                                                                                                ",
"                                                                                                                                                                ",
"                                                                                                                                                                ",
"                                                                                                                                                                ",
"                                                                                                                                                                ",
"                                                                                                                                                                ",
"                                                                                                                                                                ",
"                                                                                                                                                                ",
"                                                                                                                                                                ",
"                                                                                                                                                                ",
"                                                                                                                                                                ",
"                                                                                                                                                                ",
"                                                                                                                                                                "};

