/* XPM */
static char *tent_xpm[]={
/* ChaosToolsFrm_functionBifBitmap */
"160 50 19 1",
"      c None",
"0     c #F5F5F5",
"1     c #A7A7A7",
"2     c #B4B4B4",
"3     c #393939",
"4     c #E1E1E1",
"5     c #D7D7D7",
"6     c #7A7A7A",
"7     c #000000",
"8     c #0D0D0D",
"9     c #C7C7C7",
"a     c #ECECEC",
"b     c #535353",
"c     c #999999",
"d     c #C0C0C0",
"e     c #686868",
"f     c #8B8B8B",
"g     c #CCCCCC",
"h     c #BEBEBE",
"                                                                                                                                                                ",
"                                                                                                                                                                ",
"                                                                                                                                                                ",
"                                                                                                                                                                ",
"                                                                                                                                            012                 ",
"                                                                                                  34                                      56672      43         ",
"                                                                                                  75                                         72      57         ",
"                                                                                                  75                                         72      57         ",
"                                                                                                  75                                         72      57         ",
"                                                                                                  75                                         72      57         ",
"                                                                                                  75                                         72      57         ",
"                                                                                                  75                                         72      57         ",
"                                                                                                  75                                         72      57         ",
"                                                                                                  75                                         72      57         ",
"                                                                                                  75                                         72      57         ",
"                                                                                                  89                                         72      98         ",
"                                                 25                                               75                                      a6bbb61    57  0c     ",
"                                                d1     5e                             56e64       75                                                 57   5f    ",
"                                               4e    ceb7                            4f  c3a      75                                                 57    cd   ",
"                                               6g      27                            60  07f      75                                                 57    a30  ",
"                                              a3       27                            76   b3      75                                                 57     6d  ",
"                                              2f       27                            66   b3      75                                                 57     26  ",
"  022fg1ef                          acf1d2bc  62       27                                07f      75   022fg1ef                                      57     53  ",
"  c  6e 6f      d77777777777b       1a275 b1  bg       27                                23a      75   c  6e 6f                                      57     a7a ",
" 5g  b1                             1 f6      75       27                               a35       7h  5g  b1                                         h7      74 ",
"    075                               32      75       27         c7777777777b          6g        7h     075         c7777777777b       7777777777   h7      75 ",
"    g70                              475      75       27                              cd  5      75     g70                                         57      75 ",
"    1e  g4      d77777777777b        27       bg       27                             d2   f      75     1e  g4                                      57     a7a ",
" f6 bf 0c                            66       62       27                            53cccf6      75  f6 bf 0c                                       57     43  ",
" cef5fcc0                            eg       2f     16bbb6a                         3777771      75  cef5fcc0                                       57     26  ",
"                                              43                                                  75                                       56e64     57     6d  ",
"                                               6g                                                 75                                      4f  c3a    57    03   ",
"                                               4e                                                 75                                      60  07f    57    cd   ",
"                                                d2                                                75                                      76   b3    57   5f    ",
"                                                 25                                               89                                      66   b3    98  0c     ",
"                                                                                                  75                                          07f    57         ",
"                                                                                                  75                                          23a    57         ",
"                                                                                                  75                                         a35     57         ",
"                                                                                                  75                                         6g      57         ",
"                                                                                                  75                                        cd  5    57         ",
"                                                                                                  75                                       d2   f    57         ",
"                                                                                                  75                                      53cccf6    57         ",
"                                                                                                  75                                      3777771    57         ",
"                                                                                                  75                                                 57         ",
"                                                                                                  34                                                 43         ",
"                                                                                                                                                                ",
"                                                                                                                                                                ",
"                                                                                                                                                                ",
"                                                                                                                                                                ",
"                                                                                                                                                                "};

