/* XPM */
static char *logistic_xpm[]={
/* ChaosToolsFrm_functionBifBitmap */
"160 50 16 1",
"      c None",
"0     c #999999",
"1     c #F5F5F5",
"2     c #8B8B8B",
"3     c #D7D7D7",
"4     c #A7A7A7",
"5     c #B4B4B4",
"6     c #C0C0C0",
"7     c #7A7A7A",
"8     c #000000",
"9     c #393939",
"a     c #ECECEC",
"b     c #CCCCCC",
"c     c #686868",
"d     c #535353",
"e     c #E1E1E1",
"                                                                                                                                                                ",
"                                                                                                                                                                ",
"                                                                                                                                                                ",
"                                                                                                                                                                ",
"                                                                                                                                                                ",
"                                                                                                                                                                ",
"                                                                                                                                                                ",
"                                                                                                                                                                ",
"                                                                                                                                                                ",
"                                                                                                                                                                ",
"                                                                                                                                                                ",
"                                                                                                                                                                ",
"                                                                                                                                                                ",
"                                                                                                                                                                ",
"                                                                                                                                                                ",
"                                                                                     01                                           10                            ",
"                                                                                    23    145                                      32                           ",
"                                                                                   60   37785                                       06                          ",
"                                                                                   9a      85                                       a91                         ",
"                                                                                  67       85                                        76                         ",
"                                                                                  75       85                                        57                         ",
"                           1552b4c2                          a02465d0  1552b4c2   93       85                            1552b4c2    39                         ",
"                           0  7c 72       d888888888886      4a583 d4  0  7c 72  a8a       85                            0  7c 72    a8a                        ",
"                          3b  d4                             4 27     3b  d4     38        85                           3b  d4        8e                        ",
"                             183                               95        183     38        85         d88888888880         183        83                        ",
"                             b81                              e83        b81     38        85                              b81        83                        ",
"                             4c  be       d888888888886       58         4c  be  a8a       85                              4c  be    a8a                        ",
"                          27 d2 10                            77      27 d2 10    93       85                           27 d2 10     e9                         ",
"                          0c232001                            cb      0c232001    75    a7ddd74                         0c232001     57                         ",
"                                                                                  67                                                 76                         ",
"                                                                                  191                                               19                          ",
"                                                                                   60                                               06                          ",
"                                                                                    23                                             32                           ",
"                                                                                    101                                           10                            ",
"                                                                                                                                                                ",
"                                                                                                                                                                ",
"                                                                                                                                                                ",
"                                                                                                                                                                ",
"                                                                                                                                                                ",
"                                                                                                                                                                ",
"                                                                                                                                                                ",
"                                                                                                                                                                ",
"                                                                                                                                                                ",
"                                                                                                                                                                ",
"                                                                                                                                                                ",
"                                                                                                                                                                ",
"                                                                                                                                                                ",
"                                                                                                                                                                ",
"                                                                                                                                                                ",
"                                                                                                                                                                "};

